<?xml version="1.0" encoding="iso-8859-1"?>
<!-- Generator: Adobe Illustrator 16.0.0, SVG Export Plug-In . SVG Version: 6.00 Build 0)  -->
<!DOCTYPE svg PUBLIC "-//W3C//DTD SVG 1.1//EN" "http://www.w3.org/Graphics/SVG/1.1/DTD/svg11.dtd">
<svg version="1.1" id="Capa_1" xmlns="http://www.w3.org/2000/svg" xmlns:xlink="http://www.w3.org/1999/xlink" x="0px" y="0px"
	 width="168.094px" height="168.094px" viewBox="0 0 168.094 168.094" style="enable-background:new 0 0 168.094 168.094;"
	 xml:space="preserve">
<g>
	<path d="M84.474,112.312c0,0,2.849-31.868,56.857-23.731c-0.939-3.677-7.683-21.119,26.763-32.619
		c-7.653,0-57.883-0.011-57.883-0.011s1.193,13.913-14.686,13.913c-3.902,0-5.522-0.766-5.522-13.251
		c0,5.384-2.374,8.427-4.99,8.427c-2.603,0-4.626-6.102-4.626-8.931c0-2.837,1.22,13.689-4.544,13.689
		c-5.763,0-18.365,0.224-18.365-13.865C46.789,55.929,0,55.957,0,55.957s36.961,10.429,26.112,32.506
		C36.272,88.763,76.448,84.175,84.474,112.312z"/>
</g>
<g>
</g>
<g>
</g>
<g>
</g>
<g>
</g>
<g>
</g>
<g>
</g>
<g>
</g>
<g>
</g>
<g>
</g>
<g>
</g>
<g>
</g>
<g>
</g>
<g>
</g>
<g>
</g>
<g>
</g>
</svg>
