<?xml version="1.0" encoding="utf-8"?>
<!-- Generator: Adobe Illustrator 24.0.1, SVG Export Plug-In . SVG Version: 6.00 Build 0)  -->
<svg version="1.1" id="Capa_1" xmlns="http://www.w3.org/2000/svg" xmlns:xlink="http://www.w3.org/1999/xlink" x="0px" y="0px"
	 viewBox="0 0 168.1 168.1" style="enable-background:new 0 0 168.1 168.1;" xml:space="preserve">
<style type="text/css">
	.st0{fill:#FFFFFF;}
</style>
<g>
	<path class="st0" d="M84.5,112.3c0,0,2.8-31.9,56.9-23.7c-0.9-3.7-7.7-21.1,26.8-32.6c-7.7,0-57.9,0-57.9,0s1.2,13.9-14.7,13.9
		c-3.9,0-5.5-0.8-5.5-13.3c0,5.4-2.4,8.4-5,8.4c-2.6,0-4.6-6.1-4.6-8.9c0-2.8,1.2,13.7-4.5,13.7c-5.8,0-18.4,0.2-18.4-13.9
		C46.8,55.9,0,56,0,56s37,10.4,26.1,32.5C36.3,88.8,76.4,84.2,84.5,112.3z"/>
</g>
</svg>
